HIERARCHY
ROOT Hips
{
	OFFSET 0.000000 0.000000 0.000000
	CHANNELS 6 Xposition Yposition Zposition Zrotation Yrotation Xrotation 
	JOINT LHipJoint
	{
		OFFSET 0.000000 0.000000 0.000000
		CHANNELS 3 Zrotation Yrotation Xrotation
		JOINT LeftUpLeg
		{
			OFFSET 1.363060 -1.794630 0.839290
			CHANNELS 3 Zrotation Yrotation Xrotation
			JOINT LeftLeg
			{
				OFFSET 2.448110 -6.726130 0.000000
				CHANNELS 3 Zrotation Yrotation Xrotation
				JOINT LeftFoot
				{
					OFFSET 2.562200 -7.039590 0.000000
					CHANNELS 3 Zrotation Yrotation Xrotation
					JOINT LeftToeBase
					{
						OFFSET 0.157640 -0.433110 2.322550
						CHANNELS 3 Zrotation Yrotation Xrotation
						End Site
						{
							OFFSET 0.000000 0.000000 0.000000
						}
					}
				}
			}
		}
	}
	JOINT RHipJoint
	{
		OFFSET 0.000000 0.000000 0.000000
		CHANNELS 3 Zrotation Yrotation Xrotation
		JOINT RightUpLeg
		{
			OFFSET -1.305520 -1.794630 0.839290
			CHANNELS 3 Zrotation Yrotation Xrotation
			JOINT RightLeg
			{
				OFFSET -2.542530 -6.985550 0.000000
				CHANNELS 3 Zrotation Yrotation Xrotation
				JOINT RightFoot
				{
					OFFSET -2.568260 -7.056230 0.000000
					CHANNELS 3 Zrotation Yrotation Xrotation
					JOINT RightToeBase
					{
						OFFSET -0.164730 -0.452590 2.363150
						CHANNELS 3 Zrotation Yrotation Xrotation
						End Site
						{
							OFFSET 0.000000 0.000000 0.000000
						}
					}
				}
			}
		}
	}
	JOINT LowerBack
	{
		OFFSET 0.000000 0.000000 0.000000
		CHANNELS 3 Zrotation Yrotation Xrotation
		JOINT Spine
		{
			OFFSET 0.028270 2.035590 -0.193380
			CHANNELS 3 Zrotation Yrotation Xrotation
			JOINT Spine1
			{
				OFFSET 0.056720 2.048850 -0.042750
				CHANNELS 3 Zrotation Yrotation Xrotation
				JOINT Neck
				{
					OFFSET 0.000000 0.000000 0.000000
					CHANNELS 3 Zrotation Yrotation Xrotation
					JOINT Neck1
					{
						OFFSET -0.054170 1.746240 0.172020
						CHANNELS 3 Zrotation Yrotation Xrotation
						JOINT Head
						{
							OFFSET 0.104070 1.761360 -0.123970
							CHANNELS 3 Zrotation Yrotation Xrotation
							End Site
							{
								OFFSET 0.000000 0.000000 0.000000
							}
						}
					}
				}
				JOINT LeftShoulder
				{
					OFFSET 0.000000 0.000000 0.000000
					CHANNELS 3 Zrotation Yrotation Xrotation
					JOINT LeftArm
					{
						OFFSET 3.362410 1.200890 -0.311210
						CHANNELS 3 Zrotation Yrotation Xrotation
						JOINT LeftForeArm
						{
							OFFSET 4.983000 -0.000000 -0.000000
							CHANNELS 3 Zrotation Yrotation Xrotation
							JOINT LeftHand
							{
								OFFSET 3.483560 -0.000000 -0.000000
								CHANNELS 3 Zrotation Yrotation Xrotation
								JOINT LeftFingerBase
								{
									OFFSET 0.000000 0.000000 0.000000
									CHANNELS 3 Zrotation Yrotation Xrotation
									JOINT LeftHandIndex1
									{
										OFFSET 0.715260 -0.000000 -0.000000
										CHANNELS 3 Zrotation Yrotation Xrotation
										End Site
										{
											OFFSET 0.000000 0.000000 0.000000
										}
									}
								}
								JOINT LThumb
								{
									OFFSET 0.000000 0.000000 0.000000
									CHANNELS 3 Zrotation Yrotation Xrotation
									End Site
									{
										OFFSET 0.000000 0.000000 0.000000
									}
								}
							}
						}
					}
				}
				JOINT RightShoulder
				{
					OFFSET 0.000000 0.000000 0.000000
					CHANNELS 3 Zrotation Yrotation Xrotation
					JOINT RightArm
					{
						OFFSET -3.136600 1.374050 -0.404650
						CHANNELS 3 Zrotation Yrotation Xrotation
						JOINT RightForeArm
						{
							OFFSET -5.241900 -0.000000 -0.000000
							CHANNELS 3 Zrotation Yrotation Xrotation
							JOINT RightHand
							{
								OFFSET -3.444170 -0.000000 -0.000000
								CHANNELS 3 Zrotation Yrotation Xrotation
								JOINT RightFingerBase
								{
									OFFSET 0.000000 0.000000 0.000000
									CHANNELS 3 Zrotation Yrotation Xrotation
									JOINT RightHandIndex1
									{
										OFFSET -0.622530 -0.000000 -0.000000
										CHANNELS 3 Zrotation Yrotation Xrotation
										End Site
										{
											OFFSET 0.000000 0.000000 0.000000
										}
									}
								}
								JOINT RThumb
								{
									OFFSET 0.000000 0.000000 0.000000
									CHANNELS 3 Zrotation Yrotation Xrotation
									End Site
									{
										OFFSET 0.000000 0.000000 0.000000
									}
								}
							}
						}
					}
				}
			}
		}
	}
}
MOTION
Frames: 10
Frame Time: 0.008333
20.494369 21.538131 39.272823 -0.925812 0.643610 9.798620 -16.032495 2.654064 2.626907 5.104891 -0.802982 -29.108710 -24.259819 -32.129526 52.588778 -19.161398 52.927733 7.581604 -0.425536 -1.217724 -1.950155 13.501543 -2.689112 4.433180 -5.222434 2.558804 -28.143967 36.740432 34.770223 62.852763 27.188739 -62.215087 -22.264039 0.097806 0.380072 -2.145546 1.846751 -0.420978 6.015108 0.813001 -0.317439 -4.159456 -1.458623 -0.400516 -0.901808 -4.095002 -1.365070 -5.582793 3.013213 -5.392727 23.954009 -1.496965 -4.034208 -6.405764 -3.268745 -7.265898 0.800818 -79.967039 -7.557688 47.444529 5.734506 -11.455345 -6.101411 0.138907 -7.875568 -4.760415 0.201017 2.175778 0.000000 0.000000 0.000000 0.000000 0.000000 0.000000 0.000000 5.889280 8.105240 3.853903 70.747841 6.599296 41.216953 -0.982727 15.990978 5.797307 -5.782143 5.240263 5.389826 2.190206 -0.767007 0.000000 0.000000 0.000000 0.000000 0.000000 0.000000 0.000000
20.492897 21.525609 39.269583 -0.957324 0.612981 9.876463 -16.023269 2.654072 2.650951 5.094324 -0.655958 -29.215147 -23.955262 -32.016902 52.160507 -19.511036 52.087477 7.408240 -0.425939 -1.040448 -2.085779 13.487048 -2.714437 4.429519 -5.138313 2.341027 -28.241448 35.957062 34.843567 61.980541 27.660783 -61.283372 -22.025969 0.114950 0.463020 -2.890252 1.850973 -0.407642 5.946862 0.812112 -0.303426 -4.160195 -1.401981 -0.385144 -0.968441 -4.109053 -1.362041 -5.529753 3.012109 -5.480725 24.052915 -1.786074 -4.093815 -6.251932 -3.124395 -7.263475 0.692922 -80.066894 -6.993526 48.492042 6.345028 -11.799781 -6.510688 0.009378 -7.676810 -4.926554 0.274513 2.068906 0.000000 0.000000 0.000000 0.000000 0.000000 0.000000 0.000000 5.816305 8.113600 3.847406 70.672371 6.639807 41.436122 -0.574685 15.776324 5.606053 -5.578226 5.094412 5.095089 2.129208 -0.744227 0.000000 0.000000 0.000000 0.000000 0.000000 0.000000 0.000000
20.491063 21.491752 39.274973 -0.976987 0.549983 10.034541 -16.013337 2.570617 2.678720 5.186204 -0.767141 -29.176343 -23.447210 -31.724212 51.422490 -19.778465 51.439427 7.097849 -0.601993 -1.111535 -3.275984 13.469426 -2.626203 4.455477 -5.094449 2.310321 -28.283681 36.013432 35.380219 61.949192 28.962841 -61.206129 -22.906292 0.070641 0.288261 -2.416299 1.876927 -0.394580 5.739521 0.811267 -0.295870 -4.158431 -1.406757 -0.376412 -0.966378 -4.087616 -1.368479 -5.543245 3.054404 -5.313161 24.564662 -1.898906 -3.873522 -7.140732 -3.108597 -7.193842 0.758393 -79.976683 -6.941796 48.583068 6.187544 -11.814867 -6.243170 0.110857 -7.611335 -4.700506 0.210851 2.048009 -0.000000 0.000000 0.000000 0.000000 0.000000 0.000000 0.000000 5.774028 8.068141 3.802158 70.658289 6.658861 41.628655 -0.416238 15.566523 5.146203 -5.524554 5.126755 4.593778 2.126681 -0.780056 0.000000 0.000000 0.000000 0.000000 0.000000 0.000000 0.000000
20.488721 21.451591 39.276300 -0.995432 0.448577 10.261135 -15.983516 2.388471 2.722975 5.388743 -0.954928 -29.075376 -23.592055 -31.860637 51.126517 -20.533621 51.332883 6.111818 -0.488358 -1.217567 -2.396362 13.390678 -2.426103 4.492794 -5.422797 2.886158 -28.023415 35.166900 35.418283 60.670356 32.534054 -59.908192 -25.611953 0.121804 0.453857 -1.694459 1.839816 -0.385826 5.467168 0.810934 -0.289758 -4.158771 -1.327335 -0.368650 -1.000999 -4.103373 -1.371460 -5.529527 3.059378 -5.296327 24.832554 -2.044978 -3.829651 -7.463211 -2.946084 -7.113052 0.663858 -80.048978 -6.681133 48.742924 6.215576 -12.036645 -6.094893 0.214905 -7.770800 -4.526520 0.157874 2.095292 -0.000000 0.000000 0.000000 0.000000 0.000000 0.000000 0.000000 5.706315 7.999027 3.859654 70.532891 6.888848 42.036273 -0.509036 15.404373 4.630100 -7.091883 4.841886 3.952363 2.697308 -0.632191 -0.000000 0.000000 0.000000 0.000000 0.000000 0.000000 0.000000
20.488533 21.395526 39.281522 -1.043202 0.248232 10.351024 -15.977104 2.331947 2.790725 5.579728 -1.092160 -28.865677 -23.068163 -31.607305 50.256486 -21.039695 50.882842 5.594909 -0.522215 -1.489427 -2.438919 13.407710 -2.406618 4.438465 -5.472919 3.046077 -27.889765 33.421104 35.128014 58.768089 31.444088 -58.841124 -22.940577 0.116867 0.457248 -2.445629 1.844009 -0.352291 5.257835 0.808796 -0.261692 -4.158961 -1.274445 -0.342026 -0.971958 -4.122286 -1.383662 -5.570306 3.027489 -5.212067 25.009180 -1.970378 -3.746277 -7.356098 -2.916123 -7.015358 0.675029 -79.917207 -6.510276 48.639550 6.412979 -12.373197 -5.991194 1.086258 -7.446978 -4.425976 -0.180948 1.940502 -0.000000 0.000000 0.000000 0.000000 0.000000 0.000000 0.000000 5.748801 7.942710 3.901488 70.402031 6.940380 42.236303 -0.059919 15.160004 4.917577 -5.183350 4.795903 4.334379 2.012626 -0.694594 0.000000 0.000000 0.000000 0.000000 0.000000 0.000000 0.000000
20.487774 21.331477 39.288502 -1.065439 0.115188 10.461726 -15.993819 2.236700 2.863094 5.878755 -1.461107 -28.519640 -22.650599 -31.432217 49.310071 -21.485034 50.752635 5.123655 -0.662014 -1.248813 -3.610739 13.404329 -2.302570 4.477097 -5.628795 3.537300 -27.604116 33.142076 35.495667 58.197676 32.111190 -58.907661 -23.246087 0.071183 0.279272 -1.927695 1.843574 -0.323634 4.995907 0.806430 -0.237464 -4.160873 -1.275345 -0.319458 -0.975897 -4.104551 -1.394526 -5.586736 3.025419 -5.203790 25.097332 -2.080000 -3.723076 -6.995314 -2.912793 -6.875802 0.691880 -79.796806 -6.266603 48.719202 6.234255 -12.712879 -5.748748 0.414782 -7.462417 -4.070300 0.048610 1.934022 -0.000000 0.000000 0.000000 0.000000 0.000000 0.000000 0.000000 5.728012 7.841151 3.889448 70.287035 7.051014 41.959895 0.287444 15.081472 4.923199 -5.197455 4.604792 4.244505 2.027694 -0.628308 -0.000000 0.000000 0.000000 0.000000 0.000000 0.000000 0.000000
20.482615 21.257864 39.297523 -1.114388 0.013129 10.533280 -16.014839 2.234852 2.945540 6.099225 -1.683252 -28.216761 -22.001756 -31.314372 48.252438 -22.090406 50.575675 5.051510 -0.754015 -1.340910 -4.209909 13.437203 -2.307185 4.507786 -5.813486 3.939832 -27.262951 31.393381 35.142343 56.168810 32.875060 -57.196247 -22.717065 0.056491 0.219785 -1.583617 1.834402 -0.323899 4.731209 0.807379 -0.243142 -4.161936 -1.220554 -0.324971 -0.989476 -4.100830 -1.394268 -5.595168 3.055791 -5.033528 25.430546 -2.080413 -3.523921 -7.335278 -2.899814 -6.747059 0.658903 -79.653983 -5.955983 48.963967 6.678078 -13.117983 -5.933557 1.194538 -7.318896 -4.168005 -0.239028 1.837520 -0.000000 0.000000 0.000000 0.000000 0.000000 0.000000 0.000000 5.765424 7.711215 3.916630 70.224792 7.179890 42.537545 0.266875 14.917019 4.852137 -5.024443 4.652699 4.205674 1.969330 -0.660506 -0.000000 0.000000 0.000000 0.000000 0.000000 0.000000 0.000000
20.480165 21.165553 39.304247 -1.143903 -0.106949 10.682535 -16.058714 2.187815 2.936662 6.015879 -1.575306 -28.061490 -21.965571 -31.763750 48.051740 -20.689850 50.821935 5.940599 -0.444323 -0.326519 -2.716270 13.412862 -2.167502 4.579213 -6.051966 4.321654 -27.012614 30.888383 35.523541 55.577779 37.735808 -55.002593 -25.940413 0.080681 0.319546 -2.196232 1.808423 -0.322800 4.432969 0.808223 -0.244768 -4.165607 -1.149865 -0.327738 -1.007948 -4.105746 -1.388124 -5.610898 3.082782 -4.994220 25.512372 -2.159373 -3.469279 -7.360653 -2.827384 -6.543969 0.518808 -79.536308 -5.546151 48.718773 6.841579 -13.817587 -5.800111 1.356806 -7.259342 -3.883997 -0.310818 1.764308 -0.000000 0.000000 0.000000 0.000000 0.000000 0.000000 0.000000 5.768413 7.499295 4.037360 70.015230 7.498644 42.313736 0.638431 14.899665 5.395364 -4.936815 4.530503 4.660418 1.949310 -0.601864 -0.000000 0.000000 0.000000 0.000000 0.000000 0.000000 0.000000
20.477747 21.059938 39.314495 -1.174295 -0.229151 10.639111 -16.146133 2.282089 2.986012 6.085040 -1.471473 -27.742633 -20.488184 -31.347277 46.372115 -22.269198 50.482217 6.376461 -0.510651 -1.424394 -2.403694 13.509148 -2.250828 4.572496 -6.028935 4.585517 -26.692581 30.113466 35.777840 54.707056 34.750384 -55.737036 -22.115561 0.151682 0.568487 -1.965478 1.867336 -0.319001 4.262081 0.808863 -0.250804 -4.167343 -1.192459 -0.334864 -1.003287 -4.074563 -1.393395 -5.645661 3.119715 -4.884332 25.731199 -2.330113 -3.327541 -7.629829 -2.938290 -6.310494 0.520776 -79.309526 -5.332420 48.694431 6.719670 -14.272003 -5.646685 0.728916 -7.920652 -3.627318 -0.107359 1.999982 -0.000000 0.000000 0.000000 0.000000 0.000000 0.000000 0.000000 5.806128 7.266557 4.060857 69.877788 7.793571 42.011125 0.987099 14.806827 6.117290 -5.054254 4.635874 5.254403 2.014519 -0.619281 -0.000000 0.000000 0.000000 0.000000 0.000000 0.000000 0.000000
20.475456 20.943860 39.327289 -1.220775 -0.363082 10.616299 -16.236369 2.310199 3.077352 6.251538 -1.716739 -27.300568 -21.054672 -32.423222 46.618628 -22.325613 52.139670 6.689834 -0.524023 -1.498558 -2.445220 13.585662 -2.266974 4.628213 -6.010197 4.814661 -26.378601 30.284120 36.808679 54.987385 36.151044 -55.713585 -22.259092 0.216795 0.820649 -2.434352 1.876943 -0.302766 4.035859 0.808080 -0.238658 -4.171619 -1.202099 -0.324874 -1.006142 -4.030697 -1.372422 -5.672029 3.153729 -4.986883 25.590165 -2.589463 -3.408772 -6.973206 -2.981722 -6.095212 0.508193 -79.060176 -5.009061 48.458313 6.911062 -14.868211 -5.583933 0.821915 -7.865628 -3.409934 -0.148420 1.937838 -0.000000 0.000000 0.000000 0.000000 0.000000 0.000000 0.000000 5.797178 7.040796 4.087003 69.767107 8.033245 41.769745 1.309563 14.668161 7.027275 -5.605815 4.777592 5.988727 2.239089 -0.627467 -0.000000 0.000000 0.000000 0.000000 0.000000 0.000000 0.000000
